<svg width="1200" height="720" viewBox="0 0 1200 720" fill="none" xmlns="http://www.w3.org/2000/svg">
  <rect width="1200" height="720" rx="40" fill="#0F0B16"/>
  <rect x="40" y="40" width="1120" height="640" rx="32" fill="url(#bg)"/>
  <rect x="86" y="110" width="1028" height="500" rx="30" fill="#120F17" fill-opacity="0.84" stroke="#F3E8FF" stroke-opacity="0.12"/>
  <rect x="132" y="162" width="286" height="396" rx="30" fill="#FFFFFF" fill-opacity="0.94"/>
  <rect x="458" y="162" width="286" height="396" rx="30" fill="#FFFFFF" fill-opacity="0.94"/>
  <rect x="784" y="162" width="286" height="396" rx="30" fill="#FFFFFF" fill-opacity="0.94"/>
  <circle cx="275" cy="252" r="44" fill="#E1306C"/>
  <rect x="232" y="332" width="88" height="88" rx="24" fill="#111827"/>
  <circle cx="601" cy="252" r="44" fill="#111827"/>
  <path d="M585 252H617" stroke="#69C9D0" stroke-width="10" stroke-linecap="round"/>
  <path d="M617 252L607 242M617 252L607 262" stroke="#EE1D52" stroke-width="10" stroke-linecap="round"/>
  <circle cx="927" cy="252" r="44" fill="#1877F2"/>
  <text x="88" y="88" fill="#F3E8FF" font-family="Arial, sans-serif" font-size="28" font-weight="700">VinzaTools Guide</text>
  <text x="88" y="640" fill="white" font-family="Arial, sans-serif" font-size="54" font-weight="800">Instagram, TikTok, Facebook</text>
  <text x="88" y="686" fill="#E9D5FF" font-family="Arial, sans-serif" font-size="28" font-weight="500">One cleaner workflow for public reels, clips, and social downloads.</text>
  <defs>
    <linearGradient id="bg" x1="40" y1="40" x2="1160" y2="680" gradientUnits="userSpaceOnUse">
      <stop stop-color="#312E81"/>
      <stop offset="1" stop-color="#7C3AED"/>
    </linearGradient>
  </defs>
</svg>
