<svg width="1280" height="820" viewBox="0 0 1280 820" fill="none" xmlns="http://www.w3.org/2000/svg">
  <rect width="1280" height="820" rx="40" fill="#EAFBF6"/>
  <rect x="34" y="34" width="1212" height="752" rx="30" fill="url(#bg)"/>
  <rect x="84" y="84" width="1112" height="88" rx="24" fill="#FFFFFF" fill-opacity="0.94"/>
  <rect x="120" y="111" width="190" height="34" rx="12" fill="#D8F3EA"/>
  <rect x="340" y="116" width="90" height="22" rx="11" fill="#E8F5F1"/>
  <rect x="450" y="116" width="90" height="22" rx="11" fill="#E8F5F1"/>
  <rect x="560" y="116" width="90" height="22" rx="11" fill="#E8F5F1"/>
  <rect x="937" y="104" width="220" height="46" rx="18" fill="#0F766E"/>
  <rect x="84" y="206" width="668" height="252" rx="34" fill="#FFFFFF" fill-opacity="0.94"/>
  <rect x="112" y="242" width="208" height="26" rx="13" fill="#D4F2EA"/>
  <rect x="112" y="286" width="432" height="84" rx="24" fill="#0F172A" fill-opacity="0.04"/>
  <rect x="112" y="388" width="256" height="18" rx="9" fill="#CBD5E1"/>
  <rect x="112" y="420" width="180" height="16" rx="8" fill="#E2E8F0"/>
  <rect x="112" y="490" width="164" height="44" rx="18" fill="#0F766E"/>
  <rect x="292" y="490" width="170" height="44" rx="18" fill="#FFFFFF"/>
  <rect x="794" y="206" width="402" height="252" rx="34" fill="#CCFBF1"/>
  <circle cx="995" cy="292" r="72" fill="#99F6E4"/>
  <path d="M995 236L1027 252V283C1027 328 995 349 995 349C995 349 963 328 963 283V252L995 236Z" fill="#0F766E"/>
  <rect x="84" y="490" width="300" height="228" rx="30" fill="#FFFFFF" fill-opacity="0.92"/>
  <rect x="416" y="490" width="336" height="228" rx="30" fill="#FFFFFF" fill-opacity="0.92"/>
  <rect x="784" y="490" width="412" height="228" rx="30" fill="#FFFFFF" fill-opacity="0.92"/>
  <rect x="114" y="526" width="132" height="18" rx="9" fill="#CFF1E7"/>
  <rect x="114" y="558" width="220" height="70" rx="22" fill="#ECFEF9"/>
  <rect x="446" y="526" width="126" height="18" rx="9" fill="#CFF1E7"/>
  <rect x="446" y="558" width="274" height="18" rx="9" fill="#CBD5E1"/>
  <rect x="446" y="592" width="230" height="18" rx="9" fill="#E2E8F0"/>
  <rect x="446" y="638" width="116" height="36" rx="14" fill="#0F766E"/>
  <rect x="814" y="526" width="148" height="18" rx="9" fill="#CFF1E7"/>
  <rect x="814" y="560" width="352" height="122" rx="22" fill="#F8FAFC"/>
  <circle cx="928" cy="621" r="36" fill="#D1FAE5"/>
  <circle cx="1012" cy="621" r="36" fill="#BFDBFE"/>
  <circle cx="1096" cy="621" r="36" fill="#FDE68A"/>
  <text x="112" y="148" fill="#0F766E" font-family="Arial, sans-serif" font-size="28" font-weight="700">Noor Scholars Academy</text>
  <text x="112" y="330" fill="#0F172A" font-family="Arial, sans-serif" font-size="54" font-weight="800">Bright School Website</text>
  <text x="112" y="468" fill="#475569" font-family="Arial, sans-serif" font-size="24" font-weight="500">Admissions, Faculty, Results, Events, and Parent-friendly campus updates.</text>
  <defs>
    <linearGradient id="bg" x1="112" y1="90" x2="1168" y2="744" gradientUnits="userSpaceOnUse">
      <stop stop-color="#F5FFFC"/>
      <stop offset="0.5" stop-color="#E0F7F1"/>
      <stop offset="1" stop-color="#E6F4FF"/>
    </linearGradient>
  </defs>
</svg>
